# xmcd
#
# Track frame offsets: 
#        150
#        24779
#        50728
#        73521
#        90370
#        110864
#        129269
#        154455
#        177112
#        199321
#        223778
#        238838
#
# Disc length: 3469 seconds
#
# Revision: 3
# Processed by: cddbd v1.5.2PL0 Copyright (c) Steve Scherf et al.
# Submitted via: ExactAudioCopy v1.5
#
DISCID=aa0d8b0c
DTITLE=Ronnie Wood - I Feel Like Playing
DYEAR=2010
DGENRE=Blues
TTITLE0=Why You Wanna Go and Do a Thing Like That For
TTITLE1=Sweetness My Weakness
TTITLE2=Lucky Man
TTITLE3=I Gotta See
TTITLE4=Thing About Tou
TTITLE5=Catch You
TTITLE6=Spoonful
TTITLE7=I Don't Think So
TTITLE8=100%
TTITLE9=Fancy Pants
TTITLE10=Tell Me Something
TTITLE11=Forever
EXTD=
EXTT0=
EXTT1=
EXTT2=
EXTT3=
EXTT4=
EXTT5=
EXTT6=
EXTT7=
EXTT8=
EXTT9=
EXTT10=
EXTT11=
PLAYORDER=
